<svg xmlns="http://www.w3.org/2000/svg" xmlns:xlink="http://www.w3.org/1999/xlink" version="1.1" width="800" height="154" viewBox="0 0 800 154" xml:space="preserve">
<desc>Created with Fabric.js 5.2.4</desc>
<defs>
</defs>
<rect x="0" y="0" width="100%" height="100%" fill="transparent"></rect>
<g transform="matrix(Infinity NaN NaN Infinity 0 0)" id="8a972700-00cd-4248-8451-5b462e9b88f2"  >
</g>
<g transform="matrix(1 0 0 1 400 77)" id="37fca5a1-461f-43d6-b57b-507e0d29c622"  >
<rect style="stroke: none; stroke-width: 1; stroke-dasharray: none; stroke-linecap: butt; stroke-dashoffset: 0; stroke-linejoin: miter; stroke-miterlimit: 4; fill: rgb(255,255,255); fill-rule: nonzero; opacity: 1; visibility: hidden;" vector-effect="non-scaling-stroke"  x="-400" y="-77" rx="0" ry="0" width="800" height="154" />
</g>
<g transform="matrix(0.18 0 0 0.19 1708.41 373.27)"  >
<path style="stroke: rgb(0,0,0); stroke-width: 0.94; stroke-dasharray: none; stroke-linecap: round; stroke-dashoffset: 0; stroke-linejoin: miter; stroke-miterlimit: 4; fill: rgb(0,0,0); fill-rule: evenodd; opacity: 1;"  transform=" translate(-284.95, -36.2)" d="M 9 71.201 L 0 71.201 L 0 1.201 L 13.3 1.201 L 32.7 45.501 L 51.8 1.201 L 65.4 1.201 L 65.4 71.201 L 55.9 71.201 L 55.9 13.301 L 37.2 55.401 L 27.8 55.401 L 9 13.301 L 9 71.201 Z M 119.9 71.201 L 110.9 71.201 L 110.9 1.201 L 124.2 1.201 L 143.6 45.501 L 162.7 1.201 L 176.3 1.201 L 176.3 71.201 L 166.8 71.201 L 166.8 13.301 L 148.1 55.401 L 138.7 55.401 L 119.9 13.301 L 119.9 71.201 Z M 569.9 71.201 L 527.9 71.201 L 527.9 1.201 L 569.9 1.201 L 569.9 9.401 L 537.4 9.401 L 537.4 30.701 L 565.4 30.701 L 565.4 38.701 L 537.4 38.701 L 537.4 63.001 L 569.9 63.001 L 569.9 71.201 Z M 275.8 65.301 L 280.6 57.301 Q 284.2 60.301 288.7 62.201 C 290.42326772887395 62.91678238177631 292.2261304976411 63.423396891658946 294.07 63.71000000000001 C 295.7667931429209 63.97730369419179 297.48229558951414 64.10805641478008 299.2 64.101 C 300.7225832944154 64.1092400728138 302.2432989521178 63.99318809717653 303.747 63.754 Q 306.17 63.354 308.131 62.494 C 308.99995256618274 62.11628775648697 309.82738049743006 61.64945620191933 310.6 61.101 Q 314.648 58.209 314.795 53.366 C 314.7984994798156 53.24436534484451 314.80016633561064 53.12268487180516 314.8 53.001 C 314.80614470725334 52.02652766215171 314.69296957412877 51.054967839809656 314.463 50.10799999999999 C 314.2693839607636 49.32299582065081 313.97952164014487 48.56492020345907 313.6 47.851 C 313.271669231814 47.25015066733908 312.8684513409927 46.69337396309665 312.4 46.194 Q 311.13 44.814 308.984 43.472 C 308.97267208753215 43.46499122715884 308.96133875080255 43.457991225061164 308.95 43.45099999999999 Q 305.834 41.508 300.065 39.281 C 299.64424954630755 39.11859574064465 299.22257601791205 38.958593136984696 298.79999999999995 38.80099999999998 Q 291.6 36.001 287.3 33.151 C 286.19894669168934 32.429366345013825 285.1651060553157 31.61005851793619 284.211 30.703 Q 282.494 29.053 281.438 27.188 C 281.3379124353549 27.011222446321568 281.2418872506919 26.832175487418684 281.15 26.651000000000003 Q 279.3 23.001 279.3 18.001 Q 279.3 13.001 282.05 8.951 Q 284.8 4.901 290.15 2.451 C 292.0351762607132 1.60264023981962 294.01631810182636 0.9861357618054198 296.05 0.614999999999998 Q 299.293 0.001 303.1 0.001 Q 309.3 0.001 314.25 1.251 Q 319.2 2.501 323.9 4.801 L 320.4 12.901 C 319.075641804274 12.128471403056087 317.6966419723226 11.453677253586893 316.274 10.88199999999999 C 315.02164552380805 10.376653670287622 313.74547385203994 9.932463164240733 312.45 9.550999999999997 Q 307.9 8.201 302.9 8.201 C 301.55160657522845 8.193932002873895 300.2045556738683 8.287189372968063 298.87 8.48 Q 296.738 8.801 295 9.487 C 294.12011227177493 9.830048127480525 293.2815255864721 10.270809289275684 292.5 10.801000000000004 C 291.6858541076845 11.34511336661214 290.95692157187176 12.006982761127297 290.337 12.765000000000004 C 289.254107880106 14.103558653534419 288.67483818987046 15.77944213121042 288.7 17.501000000000005 C 288.6946915858552 18.350067976636133 288.79274589476904 19.196625897087678 288.992 20.022 C 289.16952793936247 20.747267569060664 289.4411656830184 21.44619686245269 289.8 22.101 Q 290.856 24.02 293.891 25.847 C 293.9770033778444 25.898886239441016 294.06333848505 25.95022062750921 294.15 26.000999999999998 C 294.8735576466996 26.419589599223325 295.6127574245842 26.8105382182128 296.366 27.173000000000002 Q 298.635 28.275 301.846 29.523 C 302.5284639102987 29.78811196847221 303.21315500206777 30.047454553377918 303.9 30.30099999999999 C 305.58126467991065 30.922226187580332 307.24150693736993 31.598929992398492 308.878 32.33 Q 313.264 34.301 316.25 36.401 C 317.32414087685663 37.14909774614436 318.34035396528884 37.977110844843864 319.29 38.87800000000001 Q 321.513 41.007 322.7 43.351 C 323.61834819085516 45.188280765437284 324.2075950089689 47.17229274003973 324.441 49.21300000000001 C 324.54845085145155 50.10494748622448 324.6015488954111 51.002604984106206 324.6 51.90100000000001 C 324.6134683814157 53.75529541121627 324.3893102357262 55.60367592289894 323.933 57.40099999999999 C 323.4183921318674 59.408743354603914 322.54317018361667 61.3062435134131 321.35 63.001 Q 318.1 67.601 312.35 70.001 C 309.97413498666816 70.97784278389199 307.4844503584843 71.65083041010686 304.94 72.004 C 303.038667496478 72.27385684792425 301.1203794923729 72.40653286493291 299.2 72.401 Q 291.9 72.401 285.9 70.451 C 284.0583236630836 69.86022963798088 282.26416589221805 69.13046507420232 280.533 68.268 C 278.86177035376915 67.43675123495974 277.27645479676806 66.44295633582131 275.8 65.301 Z M 515.9 68.201 L 507 72.401 L 498.3 53.401 C 497.56920034990776 51.80480109265465 496.7023327652762 50.27448371245209 495.709 48.82699999999998 Q 493.203 45.222 490 43.301 Q 485.645 40.687 479.164 40.35 C 478.50986762085773 40.31667491259751 477.85498037382627 40.300336075986245 477.2 40.301 L 475.7 40.301 L 475.7 71.201 L 466.2 71.201 L 466.2 1.401 Q 471.5 0.901 476.35 0.651 C 478.4539795160468 0.5439389955191533 480.55961045492376 0.4722621982014562 482.66599999999994 0.4359999999999966 C 484.01053594497876 0.4123461845719762 485.3552560439555 0.4006790543131334 486.7 0.4010000000000034 Q 499.5 0.401 505.95 5.601 C 507.8627632984501 7.1021939622046935 509.43994733768136 8.987320630262115 510.58 11.134999999999987 Q 512.4 14.644 512.4 19.001 C 512.415096001051 20.761820596595896 512.1961806797648 22.51684219689156 511.749 24.21999999999999 C 511.1031193856028 26.68089505355041 509.8284080859096 28.931541038491282 508.05 30.751 Q 503.7 35.201 495.5 37.401 C 496.6923249765978 37.926180889936056 497.8392254210468 38.548965558225376 498.929 39.26299999999999 C 499.39943290108977 39.573280651749265 499.85682420512495 39.90289597515314 500.3 40.25099999999999 Q 502.269 41.797 504.105 44.311 C 504.1874764092003 44.42374763933724 504.26914516570946 44.53708387286012 504.35 44.650999999999996 Q 506.3 47.401 508.3 51.801 L 515.9 68.201 Z M 361.6 71.201 L 352.1 71.201 L 352.1 9.601 L 330.6 9.601 L 330.6 1.201 L 383.1 1.201 L 383.1 9.601 L 361.6 9.601 L 361.6 71.201 Z M 411.508 71.643 C 414.00524814740373 72.16012436316498 416.5498054466949 72.41417789752518 419.1 72.401 C 420.8262903761708 72.40497637834302 422.5508794126195 72.29238697398749 424.262 72.064 C 427.2851912885175 71.67400739014053 430.2315214985115 70.82665927641715 433 69.551 Q 439.1 66.701 443.4 61.751 Q 447.7 56.801 449.95 50.201 Q 452.2 43.601 452.2 36.101 C 452.2003651014586 35.17443327630428 452.1740208273655 34.24804854933393 452.121 33.323000000000015 C 451.9191761484661 29.500008550492105 451.1885610322203 25.72342502469322 449.95 22.100999999999992 Q 447.7 15.601 443.4 10.601 Q 439.1 5.601 432.95 2.801 C 431.05939677976596 1.944089524717083 429.08476589194686 1.2862143664025942 427.058 0.8379999999999921 C 424.4441280837632 0.26755154147744753 421.77535751552836 -0.01314222147963684 419.1 0.001000000000010881 C 417.0146933797616 -0.0059404415236152565 414.9321344186946 0.1528931337022555 412.872 0.4759999999999872 C 408.79232208077036 1.0877255539386779 404.8851060802366 2.543735700581095 401.4 4.751000000000006 Q 394 9.501 390.05 17.651 C 388.80116332366833 20.239391937855757 387.85007895792586 22.961137073400177 387.215 25.763999999999996 C 386.455419969295 29.156711981164378 386.0813835905499 32.62434789783601 386.1 36.101 C 386.0998741815601 36.72116581811099 386.1115429581487 37.34127794538913 386.135 37.96100000000002 C 386.2729107398101 42.12714040613843 387.0191343137556 46.250741555164836 388.35 50.201 C 388.48960682033567 50.610718552987755 388.6359600470217 51.01810726143952 388.789 51.42299999999999 C 390.1890847085201 55.193965592232026 392.24058080568017 58.689733896384574 394.85 61.75099999999999 Q 399.1 66.701 405.2 69.551 C 407.2160134859161 70.48659345239105 409.3324389357234 71.18848978102086 411.508 71.643 Z M 419.1 64.201 C 421.1002710491145 64.214355188665 423.09563031328906 64.0013334783841 425.048 63.566 C 427.545391881984 63.014646951427885 429.9084285502944 61.9728305837105 432 60.501 C 435.17009628299786 58.2297423039889 437.69450158218245 55.17254101947471 439.325 51.63 C 439.5092826620013 51.24119953157866 439.68433173707973 50.84808932297396 439.85 50.45099999999999 C 441.02482454283523 47.59356707168984 441.80596889870264 44.58976089014809 442.172 41.522000000000006 C 442.39412963539246 39.72359481707778 442.5036763799766 37.91306767564329 442.5 36.100999999999985 Q 442.5 30.701 440.9 25.701 C 439.9652605884961 22.72538409064693 438.56817930398324 19.91536093699029 436.76 17.373999999999988 C 436.6095335277635 17.164231760953545 436.4561856572126 16.956545405837772 436.3 16.75100000000001 Q 433.3 12.801 428.95 10.501 C 426.64388196798456 9.296288411989343 424.1241031885066 8.554997149103944 421.533 8.318999999999997 C 420.7244487868156 8.239478121490128 419.91245183061875 8.200096435986131 419.1 8.201000000000002 C 416.907856908053 8.184257939627805 414.7236898037543 8.466867361625784 412.608 9.041 C 410.439117498777 9.63857971887884 408.38968609609765 10.606122441173818 406.55 11.901000000000002 C 403.2657724594942 14.23017950994606 400.64586932508195 17.37571772921273 398.949 21.026999999999994 C 398.810972601324 21.31601190373191 398.67795272007345 21.607388786471258 398.55 21.900999999999996 C 397.28998846241365 24.82783933483456 396.46329922950184 27.922702408494136 396.096 31.08800000000001 C 395.8956348965011 32.75143951155462 395.79678516812487 34.4255398100351 395.8 36.101 Q 395.8 41.501 397.35 46.551 C 398.27019937625835 49.60755494184624 399.68237498316086 52.49371628147367 401.531 55.09600000000001 C 401.65211083041345 55.265705639215746 401.77511854480207 55.434049530181206 401.9 55.601 Q 404.9 59.601 409.25 61.901 C 411.5561903997044 63.1053639520193 414.07596564890696 63.84631444662773 416.667 64.082 C 417.4755346258802 64.16185581008001 418.2875316219477 64.20157124063161 419.1 64.201 Z M 92.9 71.201 L 83.4 71.201 L 83.4 1.201 L 92.9 1.201 L 92.9 71.201 Z M 203.8 71.201 L 194.3 71.201 L 194.3 1.201 L 203.8 1.201 L 203.8 71.201 Z M 475.7 8.801 L 475.7 32.301 L 486.7 32.301 C 488.3508765681047 32.310725598712565 489.99904747784166 32.166096341551004 491.623 31.869 Q 495.552 31.126 498.4 29.101 Q 502.9 25.901 502.9 19.901 C 502.9431919122997 17.055763962425416 501.7489425464553 14.331941317748068 499.627 12.436000000000003 C 499.33014278468625 12.160322403214654 499.02081888840195 11.898381455444236 498.7 11.651000000000002 C 497.3880382119569 10.65831723510902 495.91052163400457 9.906016172732755 494.336 9.429 Q 492.407 8.818 490.077 8.57 C 488.95510617283713 8.454089300742673 487.8278608101402 8.39767696248511 486.7 8.401 Q 483.526 8.401 480.962 8.488 C 480.84132680651334 8.492149637258402 480.7206600000262 8.496482975612887 480.59999999999997 8.500999999999976 Q 477.9 8.601 475.7 8.801 Z M 259.8 41.001 L 225.8 41.001 L 225.8 32.801 L 259.8 32.801 L 259.8 41.001 Z" stroke-linecap="round" />
</g>
<g transform="matrix(1.51 0 0 1.46 1649.59 376.37)"  >
<path style="stroke: rgb(0,0,0); stroke-width: 2; stroke-dasharray: none; stroke-linecap: round; stroke-dashoffset: 0; stroke-linejoin: round; stroke-miterlimit: 4; fill: none; fill-rule: nonzero; opacity: 1;"  transform=" translate(-12, -12)" d="M 6 12 C 6.263 12 6.524 11.94 6.767 11.825 C 7.015056200712625 11.70765810274793 7.236311522040143 11.540525236945143 7.417000000000001 11.334 C 7.603000000000001 11.123999999999999 7.750000000000001 10.873999999999999 7.8500000000000005 10.6 C 7.95 10.326 8 10.032 8 9.735999999999999 C 7.995261193897668 10.319965654210707 8.20360549521059 10.885623987638793 8.586 11.326999999999998 C 8.961 11.748999999999999 9.47 11.985999999999999 10 11.985999999999999 C 10.53 11.985999999999999 11.04 11.748999999999999 11.414 11.326999999999998 C 11.79639450478941 10.885623987638795 12.004738806102331 10.319965654210709 12 9.736 C 11.995261193897669 10.319965654210709 12.20360549521059 10.885623987638795 12.586 11.326999999999998 C 12.961 11.749 13.47 11.986 14 11.986 C 14.53 11.986 15.04 11.749 15.414 11.327 C 15.796394504789411 10.885623987638795 16.00473880610233 10.319965654210709 16 9.736 C 16 10.031 16.052 10.324 16.152 10.597000000000001 C 16.252000000000002 10.870000000000003 16.400000000000002 11.118000000000002 16.586000000000002 11.327000000000002 C 16.7666887214693 11.53233308640113 16.987573781242673 11.698422314705299 17.235000000000003 11.815000000000001 C 17.719899250617654 12.041286386554727 18.280100749382353 12.041286386554727 18.765000000000004 11.815000000000001 C 19.012349495536515 11.697816291788778 19.23344729069162 11.531822870195409 19.415000000000003 11.327000000000002 C 19.6 11.118000000000002 19.747000000000003 10.870000000000001 19.848000000000003 10.597000000000001 C 19.948000000000004 10.324000000000002 20.000000000000004 10.031 20.000000000000004 9.736 C 20.000000000000004 8.762 18.892000000000003 5.886000000000001 18.382000000000005 4.615 C 18.231344491734827 4.241821660944104 17.868437316919305 3.9981667346214556 17.466 4 L 6.456 4 C 6.0411848438322755 3.9979642342892805 5.669457146282286 4.255775379364272 5.526000000000001 4.6450000000000005 C 5.045 5.962 4 8.905 4 9.736 C 4.023 10.326 4.241 10.884 4.611 11.303 C 4.981 11.721 5.476 11.97 6 12 Z M 6 12 C 6.328 12 6.651 11.909 6.9399999999999995 11.734 C 7.237113209975023 11.552774021639618 7.484528665981616 11.300547709544007 7.66 11 L 8.341000000000001 11 C 8.515910721067803 11.300309070096878 8.762618164597693 11.552514172535513 9.059000000000001 11.734 C 9.349 11.909 9.672 12 10.001000000000001 12 C 10.329 12 10.652000000000001 11.909 10.941 11.734 C 11.231 11.56 11.478000000000002 11.307 11.66 11 L 12.341000000000001 11 C 12.516191055133636 11.300428319381322 12.763252482782988 11.552644018817519 13.06 11.734 C 13.349 11.909 13.672 12 14 12 C 14.329 12 14.652 11.909 14.942 11.734 C 15.232 11.56 15.478 11.307 15.66 11 L 16.341 11 C 16.524 11.307 16.771 11.56 17.060000000000002 11.734 C 17.35 11.908 17.673000000000002 12 18.001 12 C 18.382393866563465 11.99702314600848 18.753203343349586 11.874236234355719 19.061 11.649000000000001 M 6 12 C 5.5670844781828235 11.9892918719235 5.153193655154349 11.819892016582527 4.837 11.524000000000001 M 5 12 L 5 19 C 5 19.552284749830793 5.447715250169207 20 6 20 L 8 20 L 8 15 L 11 15 L 11 20 L 18 20 C 18.552284749830793 20 19 19.552284749830793 19 19 L 19 12 M 14 15 L 14 17 L 16 17 L 16 15 L 14 15 Z" stroke-linecap="round" />
</g>
<g transform="matrix(NaN NaN NaN NaN 0 0)"  >
<g style=""   >
</g>
</g>
<g transform="matrix(NaN NaN NaN NaN 0 0)"  >
<g style=""   >
</g>
</g>
<g transform="matrix(NaN NaN NaN NaN 0 0)"  >
<g style=""   >
</g>
</g>
<g transform="matrix(NaN NaN NaN NaN 0 0)"  >
<g style=""   >
</g>
</g>
<g transform="matrix(6.42 0 0 6.42 89.34 77)"  >
<path style="stroke: rgb(0,0,0); stroke-width: 2; stroke-dasharray: none; stroke-linecap: round; stroke-dashoffset: 0; stroke-linejoin: round; stroke-miterlimit: 4; fill: none; fill-rule: nonzero; opacity: 1;"  transform=" translate(-12, -12)" d="M 6 12 C 6.263 12 6.524 11.94 6.767 11.825 C 7.015056200712625 11.70765810274793 7.236311522040143 11.540525236945143 7.417000000000001 11.334 C 7.603000000000001 11.123999999999999 7.750000000000001 10.873999999999999 7.8500000000000005 10.6 C 7.95 10.326 8 10.032 8 9.735999999999999 C 7.995261193897668 10.319965654210707 8.20360549521059 10.885623987638793 8.586 11.326999999999998 C 8.961 11.748999999999999 9.47 11.985999999999999 10 11.985999999999999 C 10.53 11.985999999999999 11.04 11.748999999999999 11.414 11.326999999999998 C 11.79639450478941 10.885623987638795 12.004738806102331 10.319965654210709 12 9.736 C 11.995261193897669 10.319965654210709 12.20360549521059 10.885623987638795 12.586 11.326999999999998 C 12.961 11.749 13.47 11.986 14 11.986 C 14.53 11.986 15.04 11.749 15.414 11.327 C 15.796394504789411 10.885623987638795 16.00473880610233 10.319965654210709 16 9.736 C 16 10.031 16.052 10.324 16.152 10.597000000000001 C 16.252000000000002 10.870000000000003 16.400000000000002 11.118000000000002 16.586000000000002 11.327000000000002 C 16.7666887214693 11.53233308640113 16.987573781242673 11.698422314705299 17.235000000000003 11.815000000000001 C 17.719899250617654 12.041286386554727 18.280100749382353 12.041286386554727 18.765000000000004 11.815000000000001 C 19.012349495536515 11.697816291788778 19.23344729069162 11.531822870195409 19.415000000000003 11.327000000000002 C 19.6 11.118000000000002 19.747000000000003 10.870000000000001 19.848000000000003 10.597000000000001 C 19.948000000000004 10.324000000000002 20.000000000000004 10.031 20.000000000000004 9.736 C 20.000000000000004 8.762 18.892000000000003 5.886000000000001 18.382000000000005 4.615 C 18.231344491734827 4.241821660944104 17.868437316919305 3.9981667346214556 17.466 4 L 6.456 4 C 6.0411848438322755 3.9979642342892805 5.669457146282286 4.255775379364272 5.526000000000001 4.6450000000000005 C 5.045 5.962 4 8.905 4 9.736 C 4.023 10.326 4.241 10.884 4.611 11.303 C 4.981 11.721 5.476 11.97 6 12 Z M 6 12 C 6.328 12 6.651 11.909 6.9399999999999995 11.734 C 7.237113209975023 11.552774021639618 7.484528665981616 11.300547709544007 7.66 11 L 8.341000000000001 11 C 8.515910721067803 11.300309070096878 8.762618164597693 11.552514172535513 9.059000000000001 11.734 C 9.349 11.909 9.672 12 10.001000000000001 12 C 10.329 12 10.652000000000001 11.909 10.941 11.734 C 11.231 11.56 11.478000000000002 11.307 11.66 11 L 12.341000000000001 11 C 12.516191055133636 11.300428319381322 12.763252482782988 11.552644018817519 13.06 11.734 C 13.349 11.909 13.672 12 14 12 C 14.329 12 14.652 11.909 14.942 11.734 C 15.232 11.56 15.478 11.307 15.66 11 L 16.341 11 C 16.524 11.307 16.771 11.56 17.060000000000002 11.734 C 17.35 11.908 17.673000000000002 12 18.001 12 C 18.382393866563465 11.99702314600848 18.753203343349586 11.874236234355719 19.061 11.649000000000001 M 6 12 C 5.5670844781828235 11.9892918719235 5.153193655154349 11.819892016582527 4.837 11.524000000000001 M 5 12 L 5 19 C 5 19.552284749830793 5.447715250169207 20 6 20 L 8 20 L 8 15 L 11 15 L 11 20 L 18 20 C 18.552284749830793 20 19 19.552284749830793 19 19 L 19 12 M 14 15 L 14 17 L 16 17 L 16 15 L 14 15 Z" stroke-linecap="round" />
</g>
<g transform="matrix(0.91 0 0 0.85 455.99 77)" style="" id="351eabb5-ff47-49b1-93b2-e3a62be6b5fb"  >
		<text xml:space="preserve" font-family="Roboto" font-size="105" font-style="normal" font-weight="900" style="stroke: none; stroke-width: 1; stroke-dasharray: none; stroke-linecap: butt; stroke-dashoffset: 0; stroke-linejoin: miter; stroke-miterlimit: 4; fill: rgb(0,0,0); fill-rule: nonzero; opacity: 1; white-space: pre;" ><tspan x="-306.28" y="32.98" >MIMI STORE</tspan></text>
</g>
</svg>